<svg width="32" height="32" viewBox="0 0 32 32" fill="none" xmlns="http://www.w3.org/2000/svg">
<path d="M0 16C0 7.16344 7.16344 0 16 0C24.8366 0 32 7.16344 32 16C32 24.8366 24.8366 32 16 32C7.16344 32 0 24.8366 0 16Z" fill="#3056D3"/>
<path d="M19.439 14.4H18.1992H17.7564V13.8839V12.2839V11.7677H18.1992H19.1291C19.3726 11.7677 19.5719 11.5613 19.5719 11.2516V8.51613C19.5719 8.23226 19.3947 8 19.1291 8H17.5128C15.7638 8 14.5461 9.44516 14.5461 11.5871V13.8323V14.3484H14.1033H12.5978C12.2878 14.3484 12 14.6323 12 15.0452V16.9032C12 17.2645 12.2435 17.6 12.5978 17.6H14.059H14.5018V18.1161V23.3032C14.5018 23.6645 14.7454 24 15.0996 24H17.1807C17.3136 24 17.4243 23.9226 17.5128 23.8194C17.6014 23.7161 17.6678 23.5355 17.6678 23.3806V18.1419V17.6258H18.1328H19.1291C19.4169 17.6258 19.6383 17.4194 19.6826 17.1097V17.0839V17.0581L19.9925 15.2774C20.0147 15.0968 19.9925 14.8903 19.8597 14.6839C19.8154 14.5548 19.6161 14.4258 19.439 14.4Z" fill="white"/>
</svg>
