<svg width="19" height="21" viewBox="0 0 19 21" fill="none" xmlns="http://www.w3.org/2000/svg">
<path d="M17.8076 11.8134C17.741 11.048 17.1088 10.5156 16.3434 10.5156H2.16795C1.40261 10.5156 0.803643 11.0813 0.703816 11.8134L0.00502514 18.8013C-0.0282506 19.2006 0.104853 19.6332 0.371059 19.9327C0.637265 20.2321 1.03657 20.3985 1.46916 20.3985H17.0755C17.4748 20.3985 17.8741 20.2321 18.1736 19.9327C18.4398 19.6332 18.5729 19.2339 18.5396 18.8013L17.8076 11.8134ZM17.2751 19.1673C17.2419 19.2006 17.1753 19.2671 17.0422 19.2671H1.46916C1.36933 19.2671 1.2695 19.2006 1.23623 19.1673C1.20295 19.134 1.1364 19.0675 1.16968 18.9344L1.86847 11.9132C1.86847 11.7468 2.00157 11.647 2.16795 11.647H16.3767C16.5431 11.647 16.6429 11.7468 16.6762 11.9132L17.375 18.9344C17.3417 19.0342 17.3084 19.134 17.2751 19.1673Z" fill="#3056D3"/>
<path d="M9.25673 13.1104C7.95898 13.1104 6.92743 14.1419 6.92743 15.4397C6.92743 16.7374 7.95898 17.769 9.25673 17.769C10.5545 17.769 11.586 16.7374 11.586 15.4397C11.586 14.1419 10.5545 13.1104 9.25673 13.1104ZM9.25673 16.6043C8.62449 16.6043 8.09208 16.0719 8.09208 15.4397C8.09208 14.8074 8.62449 14.275 9.25673 14.275C9.88897 14.275 10.4214 14.8074 10.4214 15.4397C10.4214 16.0719 9.88897 16.6043 9.25673 16.6043Z" fill="#3056D3"/>
<path d="M0.801952 6.05619C0.868504 7.52032 2.16626 8.11928 2.83177 8.11928H5.16108C5.19435 8.11928 5.19435 8.11928 5.19435 8.11928C6.19262 8.05273 7.1909 7.38722 7.1909 6.05619V5.25757C8.289 5.25757 10.818 5.25757 11.9161 5.25757V6.05619C11.9161 7.38722 12.9143 8.05273 13.9126 8.11928H13.9459H16.2419C16.9074 8.11928 18.2052 7.52032 18.2717 6.05619C18.2717 5.95636 18.2717 5.59033 18.2717 5.25757C18.2717 4.99136 18.2717 4.75843 18.2717 4.72516C18.2717 4.69188 18.2717 4.6586 18.2717 4.6586C18.1719 3.72688 17.8391 2.96154 17.2734 2.36258L17.2402 2.3293C16.4083 1.56396 15.41 1.13138 14.6447 0.865169C12.4152 0 9.62003 0 9.48692 0C7.52365 0.0332757 6.25918 0.199654 4.36246 0.865169C3.63039 1.0981 2.63212 1.53068 1.80023 2.29603L1.76695 2.3293C1.20126 2.92827 0.868504 3.69361 0.768677 4.62533C0.768677 4.6586 0.768677 4.69188 0.768677 4.69188C0.768677 4.75843 0.768677 4.95809 0.768677 5.22429C0.801953 5.52377 0.801952 5.92308 0.801952 6.05619ZM2.59884 3.12792C3.26436 2.52896 4.09625 2.16292 4.79504 1.89672C6.52538 1.26448 7.65676 1.13138 9.55348 1.0981C9.68658 1.0981 12.2821 1.13138 14.2786 1.89672C14.9774 2.16292 15.8093 2.49568 16.4748 3.12792C16.8409 3.52723 17.0738 4.05964 17.1403 4.69188C17.1403 4.79171 17.1403 4.95809 17.1403 5.22429C17.1403 5.55705 17.1403 5.92308 17.1403 6.02291C17.1071 6.78825 16.375 6.95463 16.2752 6.95463H13.9791C13.6464 6.92135 13.114 6.78825 13.114 6.05619V4.69188C13.114 4.42567 12.9476 4.22602 12.7147 4.12619C12.515 4.05964 6.69176 4.05964 6.49211 4.12619C6.25918 4.19274 6.0928 4.42567 6.0928 4.69188V6.05619C6.0928 6.78825 5.56038 6.92135 5.22763 6.95463H2.9316C2.83177 6.95463 2.09971 6.78825 2.06643 6.02291C2.06643 5.92308 2.06643 5.55705 2.06643 5.22429C2.06643 4.95809 2.06643 4.82498 2.06643 4.72516C1.99988 4.05964 2.23281 3.52723 2.59884 3.12792Z" fill="#3056D3"/>
</svg>
