<svg width="251" height="269" viewBox="0 0 251 269" fill="none" xmlns="http://www.w3.org/2000/svg">
<path d="M53.8251 109C41.9829 97.2688 36.9814 85.0303 39.7413 74.5391C43.2833 61.0759 59.0183 51.7673 82.9118 49L83 49.7723C59.4391 52.5009 43.9442 61.6006 40.488 74.738C37.802 84.9479 42.731 96.9191 54.3671 108.446L53.8251 109Z" fill="#F0F0F0"/>
<path d="M167.859 150C153.116 150 137.095 147.793 121.181 143.55C101.502 138.303 83.4576 130.382 69 120.645L69.4281 120C83.8162 129.69 101.78 137.574 121.378 142.8C139.088 147.522 156.932 149.711 172.972 149.133L173 149.908C171.306 149.97 169.592 150 167.859 150Z" fill="#F0F0F0"/>
<path d="M201.986 145L201.74 144.273C214.878 139.831 223.095 132.677 225.504 123.581C228.565 112.019 221.914 98.6019 206.777 85.8012C191.563 72.9354 169.624 62.2601 145 55.7421L145.196 55C169.928 61.5467 191.974 72.2773 207.273 85.2152C222.649 98.2179 229.387 111.913 226.246 123.778C223.769 133.134 215.38 140.472 201.986 145Z" fill="#F0F0F0"/>
<path d="M80.6886 151C51.7967 137.979 29.5334 121.086 18 103.432L18.6401 103C30.0937 120.532 52.2402 137.325 81 150.286L80.6886 151Z" fill="#F0F0F0"/>
<path d="M183.092 173C180.112 173 177.081 172.933 174 172.799L174.033 172.025C197.029 173.029 217.319 170.254 232.713 164L233 164.719C219.571 170.174 202.456 173 183.092 173Z" fill="#F0F0F0"/>
<path d="M165.763 50C161.001 48.5185 156.103 47.139 151.205 45.8999C123.019 38.7693 95.3113 36.2375 71.0771 38.5798L71 37.8512C95.3246 35.5012 123.127 38.039 151.401 45.192C156.313 46.4347 161.225 47.8181 166 49.3039L165.763 50Z" fill="#F0F0F0"/>
<path d="M35.8251 110C23.9829 98.4644 18.9814 86.4298 21.7413 76.1135C25.2833 62.8747 41.0183 53.7212 64.9118 51L65 51.7594C41.4391 54.4425 25.9442 63.3906 22.488 76.309C19.802 86.3488 24.731 98.1205 36.3671 109.456L35.8251 110Z" fill="#F0F0F0"/>
<path d="M149.859 151C135.116 151 119.095 148.867 103.181 144.765C83.5015 139.693 65.4576 132.036 51 122.623L51.4281 122C65.8162 131.367 83.7801 138.989 103.378 144.04C121.088 148.605 138.932 150.72 154.972 150.162L155 150.911C153.306 150.971 151.592 151 149.859 151Z" fill="#F0F0F0"/>
<path d="M183.986 147L183.74 146.265C196.878 141.774 205.095 134.54 207.504 125.343C210.565 113.653 203.914 100.086 188.777 87.1434C173.563 74.1347 151.624 63.3408 127 56.7503L127.196 56C151.928 62.6194 173.974 73.4693 189.273 86.5509C204.649 99.6981 211.387 113.545 208.246 125.542C205.769 135.002 197.38 142.422 183.986 147Z" fill="#F0F0F0"/>
<path d="M62.6886 152C33.7967 138.979 11.5334 122.086 0 104.432L0.640057 104C12.0937 121.532 34.2402 138.325 63 151.286L62.6886 152Z" fill="#F0F0F0"/>
<path d="M165.092 174C162.112 174 159.081 173.933 156 173.799L156.033 173.025C179.029 174.029 199.319 171.254 214.713 165L215 165.719C201.571 171.174 184.456 174 165.092 174Z" fill="#F0F0F0"/>
<path d="M147.763 51C143.001 49.5185 138.103 48.139 133.205 46.8999C105.019 39.7693 77.3113 37.2375 53.0771 39.5798L53 38.8512C77.3246 36.5012 105.127 39.039 133.401 46.192C138.313 47.4347 143.225 48.8181 148 50.3039L147.763 51Z" fill="#F0F0F0"/>
<path d="M152.662 120.655L159.209 119.885L161.52 139.905L167.42 167.552C168.24 167.952 168.91 168.605 169.329 169.416C169.747 170.227 169.893 171.151 169.744 172.051C169.595 172.952 169.159 173.78 168.501 174.412C167.843 175.044 166.998 175.448 166.093 175.561C165.187 175.675 164.269 175.494 163.475 175.044C162.681 174.594 162.054 173.899 161.686 173.064C161.319 172.229 161.231 171.297 161.436 170.408C161.641 169.519 162.128 168.72 162.824 168.129L156.898 151.841L152.662 120.655Z" fill="#FFB6B6"/>
<path d="M143.151 263.383H148.545L151.111 242.583H143.15L143.151 263.383Z" fill="#FFB6B6"/>
<path d="M141.775 268.609H159.168V268.389C159.168 266.594 158.455 264.873 157.186 263.604C155.916 262.335 154.194 261.622 152.399 261.622H141.775V268.609Z" fill="#2F2E41"/>
<path d="M101.752 260.442L107.049 261.464L113.514 241.528L105.696 240.02L101.752 260.442Z" fill="#FFB6B6"/>
<path d="M99.4115 265.314L116.49 268.61L116.531 268.394C116.871 266.632 116.498 264.807 115.492 263.32C114.486 261.833 112.931 260.807 111.168 260.466L100.737 258.452L99.4115 265.314Z" fill="#2F2E41"/>
<path d="M151.609 87.8471L148.475 93.8586L125 88.6829L127.572 77.0276C129.607 67.802 137.767 61.1394 146.996 63.1742C156.224 65.2089 160.53 74.2259 158.495 83.4514L154.712 95.2327L150.884 94.3888L151.609 87.8471Z" fill="#2F2E41"/>
<path d="M159.979 154.151C159.979 154.151 162.29 165.701 159.209 182.642C156.128 199.582 155.358 206.897 155.358 206.897C155.358 206.897 157.669 209.592 156.128 211.133C154.588 212.673 156.128 215.753 156.128 215.753L152.662 253.098L140.723 251.173L142.263 216.138C142.263 216.138 140.723 213.058 141.493 212.288C142.263 211.518 140.723 206.897 140.723 206.897L138.797 170.322L126.858 210.363C126.858 210.363 128.013 211.903 126.858 213.058C125.702 214.213 123.392 219.988 123.392 219.988L115.689 246.938L103.365 244.628L110.297 213.828C110.297 213.828 109.527 211.903 110.682 210.748C111.019 210.394 111.265 209.964 111.399 209.495C111.534 209.025 111.552 208.53 111.452 208.052C111.452 208.052 110.297 206.897 111.837 205.357C113.378 203.817 114.148 197.657 114.148 197.657C114.148 197.657 115.304 156.461 119.155 154.151C123.006 151.841 159.979 154.151 159.979 154.151Z" fill="#2F2E41"/>
<path d="M142.565 90.4465C148.521 90.4465 153.349 85.62 153.349 79.6662C153.349 73.7125 148.521 68.886 142.565 68.886C136.609 68.886 131.781 73.7125 131.781 79.6662C131.781 85.62 136.609 90.4465 142.565 90.4465Z" fill="#FFB6B6"/>
<path d="M127.367 93.4659C127.367 93.4659 119.54 92.5492 117.229 94.8592L119.54 141.445C119.54 141.445 117.999 142.6 118.77 145.295C119.217 147.064 119.217 148.917 118.77 150.686C118.77 150.686 116.459 153.381 117.614 154.536C118.77 155.691 160.364 154.921 160.364 154.921C160.364 154.921 161.905 152.226 159.594 150.686C157.283 149.145 158.438 144.91 158.438 144.91C158.438 144.91 159.209 143.755 157.283 141.83C155.357 139.905 153.817 124.12 153.817 124.12L158.824 104.869C158.824 104.869 153.784 99.1825 148.023 98.7536L127.367 93.4659Z" fill="#E6E6E6"/>
<path d="M152.856 105.134L158.823 104.869C158.823 104.869 162.29 111.799 162.675 117.959L164.796 140.94L151.121 142.985L152.856 105.134Z" fill="#E6E6E6"/>
<path d="M151.804 80.2012L155.809 75.049C156.045 73.9643 155.842 72.8302 155.245 71.8946C154.647 70.959 153.703 70.2979 152.619 70.0558L137.487 66.7189C136.402 66.4828 135.267 66.6857 134.331 67.2831C133.395 67.8806 132.734 68.8241 132.492 69.9076L132.483 69.9461L133.567 76.1674L133.757 76.1335C143.149 74.4595 145.824 75.0486 151.65 80.0707L151.804 80.2012Z" fill="#2F2E41"/>
<path d="M111.5 162.521L112.222 132.206L112.993 110.645L122.236 111.8L117.272 163.332C117.794 163.987 118.11 164.782 118.18 165.617C118.25 166.451 118.07 167.288 117.665 168.021C117.259 168.754 116.645 169.35 115.9 169.734C115.156 170.118 114.314 170.273 113.481 170.178C112.649 170.084 111.863 169.745 111.223 169.204C110.583 168.664 110.118 167.945 109.886 167.14C109.655 166.335 109.667 165.48 109.922 164.682C110.177 163.884 110.663 163.179 111.319 162.658C111.378 162.61 111.438 162.565 111.5 162.521V162.521Z" fill="#FFB6B6"/>
<path d="M123.972 95.5088L117.229 94.8589C117.229 94.8589 116.074 94.8589 114.918 98.709C113.763 102.559 107.411 143.25 107.411 143.25L121.466 144.525L123.972 95.5088Z" fill="#E6E6E6"/>
<path d="M60.5 43C70.165 43 78 35.165 78 25.5C78 15.835 70.165 8 60.5 8C50.835 8 43 15.835 43 25.5C43 35.165 50.835 43 60.5 43Z" fill="#3056D3"/>
<path d="M64 36C60.44 36 56.9598 34.9443 53.9998 32.9665C51.0397 30.9886 48.7326 28.1774 47.3702 24.8883C46.0078 21.5992 45.6513 17.98 46.3459 14.4884C47.0404 10.9967 48.7547 7.78943 51.2721 5.27208C53.7894 2.75474 56.9967 1.04041 60.4884 0.345872C63.9801 -0.348661 67.5992 0.00780058 70.8883 1.37018C74.1774 2.73256 76.9886 5.03967 78.9665 7.99975C80.9443 10.9598 82 14.44 82 18C81.9946 22.7723 80.0965 27.3475 76.722 30.722C73.3475 34.0965 68.7723 35.9946 64 36ZM64 0.774233C60.5931 0.774229 57.2627 1.7845 54.4299 3.67729C51.5971 5.57008 49.3893 8.26037 48.0855 11.408C46.7817 14.5556 46.4406 18.0191 47.1052 21.3606C47.7699 24.702 49.4105 27.7714 51.8195 30.1805C54.2286 32.5895 57.2979 34.2301 60.6394 34.8948C63.9809 35.5594 67.4444 35.2183 70.592 33.9145C73.7396 32.6108 76.4299 30.4029 78.3227 27.5701C80.2155 24.7374 81.2258 21.4069 81.2258 18C81.2206 13.433 79.4041 9.05461 76.1748 5.82527C72.9454 2.59594 68.567 0.779416 64 0.774233Z" fill="#A8AAB5"/>
<path d="M221 100C227.627 100 233 94.6274 233 88C233 81.3726 227.627 76 221 76C214.373 76 209 81.3726 209 88C209 94.6274 214.373 100 221 100Z" fill="#3056D3"/>
<path d="M224.5 95C222.028 95 219.611 94.2669 217.555 92.8934C215.5 91.5199 213.898 89.5676 212.952 87.2835C212.005 84.9995 211.758 82.4861 212.24 80.0614C212.723 77.6366 213.913 75.4093 215.661 73.6612C217.409 71.913 219.637 70.7225 222.061 70.2402C224.486 69.7579 226.999 70.0054 229.284 70.9515C231.568 71.8976 233.52 73.4998 234.893 75.5554C236.267 77.611 237 80.0277 237 82.5C236.996 85.8141 235.678 88.9913 233.335 91.3347C230.991 93.6781 227.814 94.9963 224.5 95ZM224.5 70.7753C222.181 70.7753 219.914 71.463 217.986 72.7513C216.058 74.0396 214.555 75.8708 213.668 78.0132C212.78 80.1556 212.548 82.513 213.001 84.7874C213.453 87.0617 214.57 89.1509 216.209 90.7906C217.849 92.4303 219.938 93.547 222.213 93.9994C224.487 94.4518 226.844 94.2196 228.987 93.3322C231.129 92.4448 232.96 90.942 234.249 89.0139C235.537 87.0858 236.225 84.8189 236.225 82.5C236.221 79.3915 234.985 76.4113 232.787 74.2133C230.589 72.0152 227.609 70.7788 224.5 70.7753Z" fill="#A8AAB5"/>
<path d="M250.615 269H19.3854C19.2832 269 19.1851 268.947 19.1129 268.854C19.0406 268.76 19 268.633 19 268.5C19 268.367 19.0406 268.24 19.1129 268.146C19.1851 268.053 19.2832 268 19.3854 268H250.615C250.717 268 250.815 268.053 250.887 268.146C250.959 268.24 251 268.367 251 268.5C251 268.633 250.959 268.76 250.887 268.854C250.815 268.947 250.717 269 250.615 269Z" fill="#CACACA"/>
<path d="M233.427 265.636C233.932 261.963 234.45 258.242 234.096 254.529C233.782 251.231 232.776 248.011 230.727 245.37C229.639 243.971 228.316 242.772 226.817 241.828C226.426 241.581 226.066 242.2 226.455 242.446C229.05 244.085 231.057 246.506 232.186 249.359C233.434 252.532 233.634 255.991 233.419 259.361C233.288 261.399 233.013 263.424 232.735 265.447C232.714 265.538 232.727 265.634 232.774 265.716C232.82 265.798 232.896 265.859 232.986 265.887C233.077 265.912 233.175 265.899 233.257 265.852C233.34 265.805 233.401 265.728 233.426 265.637L233.427 265.636Z" fill="#F2F2F2"/>
<path d="M229.796 259.742C229.275 260.534 228.559 261.179 227.716 261.613C226.874 262.048 225.933 262.259 224.986 262.225C222.55 262.109 220.52 260.41 218.693 258.798L213.287 254.025L216.865 253.854C219.437 253.731 222.077 253.616 224.529 254.41C226.981 255.203 229.24 257.112 229.687 259.646" fill="#E6E6E6"/>
<path d="M234.853 267.749C232.427 263.453 229.608 258.68 224.576 257.154C223.176 256.731 221.709 256.58 220.253 256.708C219.794 256.746 219.908 257.455 220.368 257.415C222.809 257.212 225.245 257.857 227.267 259.239C229.212 260.563 230.727 262.403 232.008 264.355C232.794 265.548 233.497 266.796 234.2 268.04C234.423 268.438 235.08 268.151 234.853 267.749Z" fill="#F2F2F2"/>
<path d="M43.5199 258.341C44.3949 258.706 45.3493 258.84 46.291 258.729C47.2327 258.619 48.1301 258.267 48.8966 257.709C50.8509 256.252 51.5835 253.709 52.1971 251.351L54.0098 244.374L50.9482 246.232C48.7465 247.568 46.4942 248.949 44.9049 250.977C43.3156 253.005 42.5116 255.847 43.559 258.201" fill="#E6E6E6"/>
<path d="M43.8064 267.805C43.4153 262.888 43.0816 257.355 46.4003 253.276C47.324 252.144 48.4558 251.198 49.7347 250.49C50.1369 250.265 50.438 250.917 50.0346 251.141C47.8976 252.337 46.2383 254.233 45.336 256.51C44.4637 258.695 44.2375 261.066 44.2666 263.401C44.2832 264.829 44.3981 266.257 44.5112 267.682C44.5482 268.136 43.8429 268.265 43.8064 267.805Z" fill="#F2F2F2"/>
<path d="M36.5 146C46.165 146 54 138.165 54 128.5C54 118.835 46.165 111 36.5 111C26.835 111 19 118.835 19 128.5C19 138.165 26.835 146 36.5 146Z" fill="#E4E4E4"/>
<path d="M40.4999 139C37.0387 139 33.6553 137.974 30.7774 136.051C27.8996 134.128 25.6566 131.395 24.3321 128.197C23.0076 124.999 22.661 121.48 23.3363 118.086C24.0115 114.691 25.6783 111.573 28.1257 109.126C30.5731 106.678 33.6913 105.011 37.086 104.336C40.4807 103.661 43.9994 104.008 47.1971 105.332C50.3948 106.657 53.1279 108.9 55.0508 111.778C56.9737 114.655 58 118.039 58 121.5C57.9947 126.14 56.1493 130.588 52.8685 133.869C49.5878 137.149 45.1396 138.995 40.4999 139ZM40.4999 104.762C37.1895 104.762 33.9535 105.744 31.201 107.583C28.4485 109.422 26.3032 112.036 25.0364 115.095C23.7696 118.153 23.4381 121.519 24.0839 124.765C24.7298 128.012 26.3239 130.995 28.6647 133.335C31.0055 135.676 33.9878 137.27 37.2346 137.916C40.4814 138.562 43.8468 138.23 46.9052 136.964C49.9636 135.697 52.5777 133.552 54.4168 130.799C56.256 128.047 57.2377 124.81 57.2377 121.5C57.2327 117.063 55.4676 112.808 52.3298 109.67C49.1919 106.532 44.9375 104.767 40.4999 104.762Z" fill="#F0F0F0"/>
<path d="M26 69C27.6569 69 29 67.6569 29 66C29 64.3431 27.6569 63 26 63C24.3431 63 23 64.3431 23 66C23 67.6569 24.3431 69 26 69Z" fill="#F2F2F2"/>
<path d="M184 53C185.657 53 187 51.6569 187 50C187 48.3431 185.657 47 184 47C182.343 47 181 48.3431 181 50C181 51.6569 182.343 53 184 53Z" fill="#FD6584"/>
<path d="M205 163C206.657 163 208 161.433 208 159.5C208 157.567 206.657 156 205 156C203.343 156 202 157.567 202 159.5C202 161.433 203.343 163 205 163Z" fill="#F2F2F2"/>
<path d="M66.4422 77.7875L66.562 77.0666L82 79.2521C80.4268 77.8506 75.2168 73.5163 70.4917 73.0768C64.8468 72.5519 62.3632 74.7817 62.0349 77.787C61.7067 80.7923 63.6579 83.4347 69.3029 83.9598C74.0879 84.4049 80.2248 81.0273 81.9842 79.9877L66.4422 77.7875Z" fill="#F2F2F2"/>
<path d="M210.449 36.8866L209.972 36.2657L222.44 27C220.253 27.0673 213.251 27.5187 209.614 30.5253C205.268 34.1172 205.268 37.5283 207.374 39.9955C209.48 42.4628 212.894 43.0519 217.24 39.46C220.923 36.4153 222.58 29.5731 223 27.5584L210.449 36.8866Z" fill="#F2F2F2"/>
<path d="M182.14 125.25L181.804 124.795L190.604 118C189.061 118.049 184.119 118.38 181.551 120.585C178.483 123.219 178.483 125.721 179.97 127.53C181.456 129.339 183.866 129.771 186.934 127.137C189.534 124.905 190.704 119.887 191 118.409L182.14 125.25Z" fill="#F2F2F2"/>
<path d="M112.793 20.2788C115.238 14.0359 121.017 8.64164 128 8C123.802 14.048 121.992 21.3109 122.891 28.5037C123.248 31.2765 123.95 34.3252 122.376 36.6851C121.396 38.1535 119.67 39.0575 117.89 39.4655C116.11 39.8734 114.256 39.8418 112.425 39.8079L112.015 40C110.728 33.4524 110.347 26.5216 112.793 20.2788Z" fill="#F0F0F0"/>
<path d="M127.93 7.29381C123.219 10.5524 119.664 15.1979 117.771 20.5703C117.343 21.7197 117.101 22.9288 117.053 24.153C117.045 25.347 117.36 26.5212 117.966 27.5538C118.511 28.5277 119.183 29.4615 119.479 30.5497C119.623 31.109 119.645 31.6919 119.545 32.2604C119.445 32.8288 119.225 33.3699 118.899 33.8481C118.117 35.0607 116.943 35.923 115.764 36.7267C114.456 37.6191 113.082 38.5254 112.282 39.9273C112.185 40.0972 111.924 39.9382 112.021 39.7686C113.414 37.3296 116.337 36.4437 118.126 34.3719C118.96 33.4052 119.505 32.1836 119.247 30.8964C119.022 29.7707 118.33 28.8072 117.769 27.8258C117.164 26.8271 116.814 25.6967 116.751 24.5335C116.736 23.3108 116.931 22.0946 117.328 20.9367C118.18 18.3159 119.442 15.844 121.07 13.6115C122.913 11.0534 125.184 8.82633 127.786 7.02654C127.947 6.91521 128.09 7.18321 127.93 7.29382V7.29381Z" fill="white"/>
<path d="M117.809 18.9822C117.11 18.5431 116.559 17.8115 116.256 16.9181C115.953 16.0246 115.918 15.0274 116.156 14.1045C116.205 13.918 116.442 14.0026 116.393 14.1894C116.17 15.0482 116.203 15.9771 116.487 16.8084C116.77 17.6397 117.285 18.3187 117.939 18.7228C118.081 18.8108 117.95 19.0697 117.809 18.9822Z" fill="white"/>
<path d="M117.113 27.6944C119.058 27.0949 120.699 25.8019 121.711 24.0733C121.811 23.9019 122.078 24.0625 121.978 24.2337C120.922 26.0306 119.211 27.3728 117.186 27.9923C116.993 28.0513 116.921 27.753 117.113 27.6944Z" fill="white"/>
<path d="M123.179 12.0266C123.412 12.3129 123.687 12.506 123.981 12.5887C124.274 12.6713 124.576 12.6409 124.86 12.5001C125.005 12.4273 125.06 12.7819 124.915 12.8543C124.601 13.0075 124.267 13.0405 123.943 12.9503C123.619 12.8601 123.314 12.6494 123.055 12.3368C123.029 12.3104 123.011 12.2699 123.003 12.2234C122.996 12.1769 123.001 12.1279 123.016 12.0863C123.033 12.0454 123.059 12.0162 123.09 12.005C123.12 11.9938 123.153 12.0016 123.179 12.0266Z" fill="white"/>
<path d="M144 24.1312C143.887 24.1707 143.773 24.2102 143.659 24.2521C142.137 24.7908 140.662 25.4488 139.249 26.2196C139.139 26.2775 139.028 26.3378 138.92 26.3986C135.537 28.2908 132.545 30.7767 130.096 33.7299C129.123 34.906 128.243 36.1523 127.464 37.458C126.389 39.2613 125.37 41.2997 123.791 42.6139C123.628 42.7528 123.456 42.8817 123.276 43L112.5 40.5229C112.479 40.5053 112.457 40.4901 112.435 40.4725L112 40.3927C112.035 40.3226 112.074 40.2507 112.109 40.1806C112.129 40.1399 112.152 40.0997 112.172 40.059C112.186 40.032 112.201 40.005 112.212 39.9799C112.217 39.9709 112.222 39.9619 112.226 39.9553C112.237 39.9302 112.251 39.908 112.261 39.8852C112.474 39.4826 112.689 39.0807 112.908 38.6795C112.909 38.6771 112.909 38.6771 112.912 38.6753C114.549 35.603 116.556 32.7303 118.89 30.1174C118.961 30.0403 119.032 29.9609 119.108 29.8849C120.174 28.7359 121.335 27.6733 122.579 26.708C123.262 26.1815 123.972 25.689 124.707 25.2323C126.607 24.0558 128.685 23.1769 130.866 22.6278C135.214 21.5339 139.873 21.8029 143.709 23.9634C143.807 24.0187 143.903 24.0735 144 24.1312Z" fill="#F0F0F0"/>
<path d="M143.831 24.2977C138.213 24.1041 132.674 25.5957 128 28.5608C126.982 29.1821 126.074 29.9519 125.308 30.8419C124.592 31.7316 124.139 32.7873 123.998 33.8991C123.845 34.9332 123.814 36.0079 123.398 36.9886C123.177 37.4876 122.848 37.9367 122.432 38.3065C122.016 38.6762 121.522 38.9582 120.983 39.134C119.651 39.6053 118.221 39.5942 116.822 39.5373C115.27 39.4741 113.658 39.3852 112.199 39.9874C112.022 40.0604 111.913 39.7957 112.09 39.7228C114.628 38.675 117.438 39.6458 120.067 39.094C121.294 38.8366 122.446 38.2267 123.011 37.1185C123.504 36.1494 123.537 35.0412 123.683 33.9928C123.804 32.9063 124.203 31.8644 124.846 30.9582C125.561 30.0341 126.437 29.2323 127.436 28.5872C129.66 27.1008 132.117 25.9556 134.715 25.1936C137.676 24.3082 140.775 23.9103 143.878 24.0169C144.07 24.0236 144.022 24.3043 143.831 24.2977L143.831 24.2977Z" fill="white"/>
<path d="M129.421 26.9159C128.989 26.0854 128.885 25.1379 129.129 24.2424C129.373 23.347 129.948 22.5621 130.751 22.0277C130.914 21.9202 131.1 22.1528 130.937 22.2605C130.188 22.7568 129.652 23.488 129.427 24.3222C129.202 25.1565 129.302 26.0388 129.709 26.8098C129.798 26.9775 129.509 27.0826 129.421 26.9159Z" fill="white"/>
<path d="M124.208 33.2108C126.03 33.902 128.027 33.8317 129.802 33.0139C129.978 32.9327 130.086 33.2296 129.911 33.3107C128.062 34.158 125.983 34.2266 124.089 33.5029C123.909 33.4337 124.029 33.1421 124.208 33.2108Z" fill="white"/>
<path d="M137.313 24.0965C137.414 24.4675 137.612 24.8094 137.889 25.0913C138.166 25.3732 138.514 25.5863 138.901 25.7116C139.1 25.7753 138.968 26.054 138.771 25.9907C138.344 25.8505 137.96 25.6146 137.653 25.3038C137.346 24.9929 137.125 24.6166 137.01 24.2076C136.995 24.1699 136.997 24.1286 137.014 24.0919C137.031 24.0552 137.063 24.0261 137.102 24.0103C137.142 23.9957 137.187 23.9967 137.227 24.0128C137.266 24.029 137.297 24.059 137.313 24.0965H137.313Z" fill="white"/>
<path d="M79.7925 107.662C82.2383 101.225 88.0168 95.6617 95 95C90.8016 101.237 88.9919 108.727 89.8911 116.144C90.2485 119.004 90.9501 122.148 89.3756 124.582C88.396 126.096 86.6695 127.028 84.8899 127.449C83.1101 127.869 81.2557 127.837 79.4251 127.802L79.0153 128C77.7279 121.248 77.3467 114.1 79.7925 107.662Z" fill="#F0F0F0"/>
<path d="M94.9301 95.2938C90.2187 98.5524 86.6642 103.198 84.7715 108.57C84.3433 109.72 84.1007 110.929 84.0528 112.153C84.045 113.347 84.3604 114.521 84.9661 115.554C85.5113 116.528 86.1829 117.461 86.4794 118.55C86.6229 119.109 86.6453 119.692 86.5452 120.26C86.4451 120.829 86.2248 121.37 85.8987 121.848C85.1174 123.061 83.9426 123.923 82.7642 124.727C81.4558 125.619 80.0825 126.525 79.2819 127.927C79.1849 128.097 78.9244 127.938 79.0212 127.769C80.4141 125.33 83.3373 124.444 85.1256 122.372C85.96 121.405 86.5052 120.184 86.2472 118.896C86.0216 117.771 85.3299 116.807 84.7693 115.826C84.1635 114.827 83.814 113.697 83.7512 112.533C83.736 111.311 83.931 110.095 84.328 108.937C85.1798 106.316 86.4425 103.844 88.0698 101.612C89.9128 99.0534 92.1843 96.8263 94.7859 95.0265C94.947 94.9152 95.0901 95.1832 94.9301 95.2938V95.2938Z" fill="white"/>
<path d="M85.714 106.982C84.6643 106.543 83.8386 105.812 83.3843 104.918C82.93 104.025 82.8767 103.027 83.2339 102.105C83.307 101.918 83.6629 102.003 83.5897 102.189C83.2551 103.048 83.3049 103.977 83.73 104.808C84.1551 105.64 84.9276 106.319 85.908 106.723C86.1209 106.811 85.9257 107.07 85.714 106.982Z" fill="white"/>
<path d="M85.113 114.694C87.0576 114.095 88.6993 112.802 89.7107 111.073C89.8108 110.902 90.0779 111.063 89.978 111.234C88.9221 113.031 87.2108 114.373 85.1858 114.992C84.9927 115.051 84.921 114.753 85.113 114.694Z" fill="white"/>
<path d="M111 111.233C110.887 111.274 110.773 111.315 110.659 111.359C109.137 111.924 107.662 112.613 106.249 113.42C106.139 113.481 106.028 113.544 105.92 113.608C102.537 115.59 99.5448 118.195 97.0959 121.289C96.1225 122.521 95.2427 123.826 94.4639 125.194C93.3886 127.083 92.3703 129.219 90.791 130.595C90.6278 130.741 90.4559 130.876 90.2763 131L79.5005 128.405C79.4789 128.386 79.4566 128.371 79.4349 128.352L79 128.269C79.0353 128.195 79.0735 128.12 79.1088 128.046C79.1291 128.004 79.1519 127.962 79.1722 127.919C79.1865 127.891 79.2009 127.862 79.2122 127.836C79.2169 127.827 79.2218 127.817 79.2259 127.81C79.2373 127.784 79.2505 127.761 79.2613 127.737C79.4736 127.315 79.6891 126.894 79.908 126.474C79.9086 126.471 79.9086 126.471 79.9116 126.469C81.5491 123.251 83.5561 120.241 85.8904 117.504C85.9611 117.423 86.0323 117.34 86.108 117.26C87.1741 116.057 88.335 114.943 89.5793 113.932C90.2624 113.381 90.9724 112.865 91.7068 112.386C93.6065 111.154 95.685 110.233 97.8659 109.658C102.214 108.512 106.873 108.794 110.709 111.057C110.807 111.115 110.903 111.172 111 111.233Z" fill="#F0F0F0"/>
<path d="M110.831 111.316C105.213 111.111 99.6742 112.695 95.0003 115.846C93.9822 116.506 93.0736 117.324 92.308 118.269C91.5917 119.215 91.1395 120.337 90.9983 121.518C90.8448 122.617 90.8138 123.758 90.3981 124.8C90.1775 125.331 89.8482 125.808 89.4319 126.201C89.0157 126.593 88.5217 126.893 87.9826 127.08C86.6512 127.581 85.2208 127.569 83.8224 127.508C82.2698 127.441 80.6581 127.347 79.199 127.987C79.0222 128.064 78.9133 127.783 79.0898 127.706C81.6284 126.592 84.4383 127.624 87.0673 127.037C88.294 126.764 89.4464 126.116 90.0106 124.938C90.504 123.909 90.5369 122.731 90.6828 121.617C90.8038 120.463 91.2031 119.356 91.8461 118.393C92.5614 117.411 93.4373 116.559 94.436 115.874C96.6602 114.295 99.1166 113.078 101.715 112.268C104.676 111.328 107.775 110.905 110.878 111.018C111.07 111.025 111.022 111.323 110.831 111.316L110.831 111.316Z" fill="white"/>
<path d="M96.4209 114.916C95.9888 114.085 95.8854 113.138 96.1291 112.242C96.3728 111.347 96.9477 110.562 97.7512 110.028C97.9142 109.92 98.1 110.153 97.9368 110.26C97.1876 110.757 96.6522 111.488 96.4271 112.322C96.202 113.156 96.302 114.039 96.7092 114.81C96.7975 114.977 96.5087 115.083 96.4209 114.916Z" fill="white"/>
<path d="M91.2084 121.211C93.0297 121.902 95.0271 121.832 96.8022 121.014C96.978 120.933 97.0862 121.23 96.9106 121.311C95.0619 122.158 92.9832 122.227 91.0894 121.503C90.9089 121.434 91.0289 121.142 91.2084 121.211Z" fill="white"/>
<path d="M105.313 112.097C105.414 112.468 105.612 112.809 105.889 113.091C106.166 113.373 106.514 113.586 106.901 113.712C107.1 113.775 106.968 114.054 106.771 113.991C106.344 113.85 105.96 113.615 105.653 113.304C105.346 112.993 105.125 112.617 105.01 112.208C104.995 112.17 104.997 112.129 105.014 112.092C105.031 112.055 105.063 112.026 105.102 112.01C105.142 111.996 105.187 111.997 105.227 112.013C105.266 112.029 105.297 112.059 105.313 112.097H105.313Z" fill="white"/>
<path d="M214.484 155.641C213.312 151.213 214.231 146.001 217.658 143C217.829 147.981 219.738 152.741 223.047 156.436C224.328 157.857 225.899 159.302 226 161.222C226.006 162.431 225.552 163.597 224.732 164.478C223.916 165.347 222.994 166.106 221.987 166.737L221.847 167C218.588 163.813 215.655 160.069 214.484 155.641Z" fill="#F0F0F0"/>
<path d="M217.321 143.148C215.975 146.724 215.849 150.612 216.96 154.261C217.185 155.05 217.539 155.801 218.01 156.485C218.491 157.138 219.148 157.657 219.911 157.987C220.646 158.256 221.343 158.609 221.988 159.038C222.297 159.288 222.546 159.597 222.721 159.944C222.895 160.292 222.99 160.671 223 161.056C222.995 162.007 222.788 162.948 222.393 163.822C222.014 164.808 221.604 165.827 221.72 166.896C221.734 167.026 221.522 167.039 221.508 166.909C221.306 165.049 222.603 163.448 222.775 161.637C222.84 161.219 222.804 160.793 222.669 160.391C222.534 159.988 222.304 159.621 221.997 159.316C221.411 158.79 220.627 158.53 219.91 158.21C219.16 157.898 218.502 157.417 217.994 156.808C217.488 156.148 217.104 155.412 216.858 154.63C216.275 152.877 215.986 151.049 216.001 149.211C216.005 147.114 216.388 145.033 217.131 143.058C217.177 142.936 217.367 143.027 217.321 143.148L217.321 143.148Z" fill="white"/>
<path d="M216.912 152.971C216.292 153.064 215.658 152.931 215.126 152.594C214.593 152.257 214.196 151.738 214.005 151.132C213.967 151.009 214.153 150.943 214.192 151.066C214.368 151.631 214.738 152.114 215.235 152.426C215.732 152.739 216.322 152.861 216.899 152.771C217.025 152.752 217.037 152.952 216.912 152.971Z" fill="white"/>
<path d="M220.017 157.827C220.636 156.762 220.924 155.434 220.823 154.106C220.813 153.974 220.97 153.961 220.98 154.092C221.083 155.474 220.782 156.856 220.136 157.962C220.074 158.067 219.956 157.931 220.017 157.827Z" fill="white"/>
<path d="M217.059 146.762C217.219 146.779 217.379 146.723 217.524 146.598C217.669 146.472 217.795 146.282 217.891 146.044C217.94 145.922 218.035 146.078 217.987 146.2C217.88 146.462 217.741 146.671 217.581 146.81C217.421 146.95 217.245 147.014 217.068 146.998C217.051 146.999 217.035 146.988 217.022 146.967C217.01 146.947 217.002 146.918 217 146.888C216.999 146.856 217.005 146.826 217.016 146.802C217.027 146.779 217.043 146.764 217.059 146.762Z" fill="white"/>
<path d="M233 145C232.952 145.068 232.903 145.135 232.856 145.204C232.211 146.116 231.642 147.078 231.157 148.079C231.118 148.156 231.08 148.234 231.044 148.312C229.901 150.737 229.229 153.348 229.063 156.013C228.998 157.073 229.016 158.136 229.116 159.194C229.255 160.655 229.524 162.228 229.171 163.607C229.136 163.751 229.091 163.893 229.038 164.032L221.844 166.877C221.825 166.875 221.805 166.875 221.786 166.874L221.504 167C221.495 166.946 221.486 166.889 221.477 166.835C221.472 166.804 221.468 166.772 221.463 166.74C221.46 166.719 221.457 166.698 221.453 166.679C221.452 166.672 221.451 166.665 221.45 166.66C221.446 166.641 221.444 166.623 221.441 166.605C221.394 166.29 221.35 165.974 221.307 165.657C221.306 165.656 221.306 165.656 221.307 165.654C220.96 163.242 220.907 160.799 221.149 158.376C221.158 158.303 221.165 158.23 221.177 158.156C221.306 157.075 221.526 156.005 221.833 154.959C222.004 154.386 222.204 153.822 222.433 153.27C223.027 151.842 223.848 150.515 224.865 149.337C226.893 146.988 229.669 145.298 232.763 145.019C232.843 145.012 232.92 145.005 233 145Z" fill="#F0F0F0"/>
<path d="M232.952 145.2C229.833 147.312 227.438 150.383 226.108 153.977C225.809 154.746 225.629 155.558 225.575 156.385C225.547 157.191 225.73 157.991 226.104 158.7C226.492 159.344 226.803 160.033 227.03 160.754C227.112 161.135 227.116 161.529 227.04 161.911C226.965 162.293 226.811 162.655 226.591 162.972C226.024 163.738 225.314 164.379 224.502 164.857C223.636 165.435 222.727 166.021 222.181 166.953C222.115 167.066 221.949 166.954 222.015 166.841C222.965 165.219 224.879 164.677 226.079 163.311C226.375 163.011 226.6 162.645 226.738 162.242C226.875 161.839 226.921 161.408 226.872 160.984C226.747 160.219 226.316 159.554 225.971 158.88C225.596 158.194 225.391 157.423 225.372 156.636C225.385 155.809 225.534 154.991 225.814 154.216C226.416 152.462 227.282 150.815 228.38 149.338C229.625 147.644 231.141 146.183 232.864 145.016C232.97 144.944 233.058 145.128 232.952 145.2L232.952 145.2Z" fill="white"/>
<path d="M226.798 152.988C226.08 152.713 225.524 152.267 225.23 151.731C224.936 151.195 224.923 150.602 225.194 150.06C225.249 149.95 225.494 150.005 225.439 150.115C225.186 150.62 225.198 151.172 225.473 151.671C225.748 152.17 226.268 152.584 226.939 152.837C227.085 152.892 226.943 153.043 226.798 152.988Z" fill="white"/>
<path d="M226.069 158.763C227.221 158.34 228.208 157.373 228.832 156.054C228.893 155.924 229.047 156.054 228.986 156.184C228.335 157.555 227.307 158.559 226.107 158.995C225.992 159.037 225.955 158.804 226.069 158.762V158.763Z" fill="white"/>
</svg>
