<svg width="34" height="34" viewBox="0 0 34 34" fill="none" xmlns="http://www.w3.org/2000/svg">
<path d="M16.8862 32.7723C25.6598 32.7723 32.7723 25.6598 32.7723 16.8862C32.7723 8.11248 25.6598 1 16.8862 1C8.11248 1 1 8.11248 1 16.8862C1 25.6598 8.11248 32.7723 16.8862 32.7723Z" stroke="#E5E5E5"/>
<path d="M23.0214 10H11.0208C10.4537 10 10 10.4516 10 11.0161V22.9839C10 23.5258 10.4537 24 11.0208 24H22.976C23.5432 24 23.9969 23.5484 23.9969 22.9839V10.9935C24.0422 10.4516 23.5885 10 23.0214 10ZM14.1514 21.9H12.0871V15.2387H14.1514V21.9ZM13.1079 14.3129C12.4273 14.3129 11.9056 13.771 11.9056 13.1161C11.9056 12.4613 12.45 11.9194 13.1079 11.9194C13.7658 11.9194 14.3102 12.4613 14.3102 13.1161C14.3102 13.771 13.8111 14.3129 13.1079 14.3129ZM21.9779 21.9H19.9135V18.671C19.9135 17.9032 19.8908 16.8871 18.8246 16.8871C17.7357 16.8871 17.5769 17.7452 17.5769 18.6032V21.9H15.5125V15.2387H17.5315V16.1645H17.5542C17.8491 15.6226 18.507 15.0806 19.5279 15.0806C21.6376 15.0806 22.0232 16.4355 22.0232 18.2871V21.9H21.9779Z" fill="#212B36"/>
</svg>
