<svg width="130" height="130" viewBox="0 0 130 130" fill="none" xmlns="http://www.w3.org/2000/svg">
<circle cx="65" cy="65" r="65" fill="#F7F8FA"/>
<path d="M65.5002 42.9546C55.2923 42.9546 46.9205 51.0327 46.9205 60.8733C46.9205 68.7312 58.1564 81.7296 63.0033 87.0171C63.6642 87.7515 64.5455 88.1186 65.5002 88.1186C66.4548 88.1186 67.3361 87.7515 67.997 87.0171C72.8439 81.803 84.0798 68.7312 84.0798 60.8733C84.0798 50.9593 75.708 42.9546 65.5002 42.9546ZM66.0877 85.2546C65.7205 85.6218 65.2064 85.6218 64.9127 85.2546C61.3142 81.3624 49.4908 67.9968 49.4908 60.8733C49.4908 52.3546 56.6877 45.5249 65.5002 45.5249C74.3127 45.5249 81.5095 52.428 81.5095 60.8733C81.5095 67.9968 69.6861 81.289 66.0877 85.2546Z" fill="#3056D3"/>
<path d="M65.5002 53.5298C61.1673 53.5298 57.5689 57.0548 57.5689 61.461C57.5689 65.7939 61.0939 69.3923 65.5002 69.3923C69.9064 69.3923 73.4314 65.8673 73.4314 61.461C73.4314 57.0548 69.833 53.5298 65.5002 53.5298ZM65.5002 66.7485C62.5627 66.7485 60.1392 64.3251 60.1392 61.3876C60.1392 58.4501 62.5627 56.0267 65.5002 56.0267C68.4377 56.0267 70.8611 58.4501 70.8611 61.3876C70.8611 64.3251 68.4377 66.7485 65.5002 66.7485Z" fill="#3056D3"/>
</svg>
