<svg width="75" height="75" viewBox="0 0 75 75" fill="none" xmlns="http://www.w3.org/2000/svg">
<rect width="75" height="75" rx="18" fill="#FBD06F"/>
<path d="M49.0391 41.1094V34.3828C49.0391 34.3281 49.0391 34.2734 49.0391 34.2187V27.3828C49.0391 23.6094 44.0078 20.6562 37.5547 20.6562C31.1016 20.6562 26.0156 23.6641 26.0156 27.3828V34.1641C26.0156 34.2187 26.0156 34.3281 26.0156 34.3828V41.1094C26.0156 41.1641 26.0156 41.2187 26.0156 41.2734V47.6172C26.0156 51.3359 31.1562 54.3437 37.5 54.3437C43.8438 54.3437 48.9844 51.3359 48.9844 47.6172V41.2734C48.9844 41.2187 49.0391 41.1641 49.0391 41.1094ZM28.3672 38.2109C30.5 39.7969 33.9453 40.7266 37.5 40.7266C41.1641 40.7266 44.5 39.7969 46.6328 38.2109C46.7969 38.1016 46.9609 37.9922 47.0703 37.8281V41.2187C46.9062 43.4062 43.0781 45.7031 37.5 45.7031C31.8672 45.7031 28.0391 43.4062 27.9297 41.1641V37.7734C28.0391 37.9922 28.2031 38.1016 28.3672 38.2109ZM27.9297 34.3281V31.1562C29.9531 32.9609 33.4531 34.1094 37.5 34.1094C41.5469 34.1094 45.0469 32.9609 47.0703 31.1562V34.2734C47.0156 35.3125 46.1953 36.1328 45.4844 36.625C43.6797 37.9922 40.7266 38.7578 37.5 38.7578C34.3281 38.7578 31.3203 37.9375 29.5156 36.625C28.8047 36.1875 27.9844 35.3672 27.9297 34.3281ZM37.5 22.625C42.6953 22.625 47.0703 24.8125 47.0703 27.4375C47.0703 30.0625 42.6953 32.25 37.5 32.25C32.3047 32.25 27.9297 30.0625 27.9297 27.4375C27.9297 24.8125 32.3047 22.625 37.5 22.625ZM37.5 52.4297C31.8672 52.4297 27.9297 49.9141 27.9297 47.6172V44.8281C29.9531 46.5781 33.4531 47.7266 37.5 47.7266C41.5469 47.7266 45.0469 46.5781 47.0703 44.8281V47.6172C47.0703 49.8594 43.1328 52.4297 37.5 52.4297Z" fill="white"/>
</svg>
