<svg width="75" height="75" viewBox="0 0 75 75" fill="none" xmlns="http://www.w3.org/2000/svg">
<rect width="75" height="75" rx="18" fill="#48DB7A"/>
<path d="M50.2969 43.7344H46.3594C44.5547 43.7344 42.9687 44.9375 42.4766 46.6328H30.3359C28.0937 46.6328 26.2344 44.7734 26.2344 42.5312C26.2344 40.2891 28.0937 38.4297 30.3359 38.4297H44.6641C48 38.4297 50.6797 35.75 50.6797 32.4141C50.6797 29.0781 48 26.3984 44.6641 26.3984H32.6875V26.125C32.6875 23.8828 30.8828 22.0781 28.6406 22.0781H24.7031C22.4609 22.0781 20.6562 23.8828 20.6562 26.125V27.1641C20.6562 29.4062 22.4609 31.2109 24.7031 31.2109H28.6406C30.4453 31.2109 32.0312 30.0078 32.5234 28.3125H44.6641C46.9062 28.3125 48.7656 30.1719 48.7656 32.4141C48.7656 34.6563 46.9062 36.5156 44.6641 36.5156H30.3359C27 36.5156 24.3203 39.1953 24.3203 42.5312C24.3203 45.8672 27 48.5469 30.3359 48.5469H42.3125V48.8203C42.3125 51.0625 44.1172 52.8672 46.3594 52.8672H50.2969C52.5391 52.8672 54.3437 51.0625 54.3437 48.8203V47.7812C54.3437 45.5391 52.4844 43.7344 50.2969 43.7344ZM30.7734 27.2188C30.7734 28.3672 29.8437 29.3516 28.6406 29.3516H24.7031C23.5547 29.3516 22.5703 28.4219 22.5703 27.2188V26.1797C22.5703 25.0312 23.5 24.0469 24.7031 24.0469H28.6406C29.7891 24.0469 30.7734 24.9766 30.7734 26.1797V27.2188ZM52.4297 48.8203C52.4297 49.9688 51.5 50.9531 50.2969 50.9531H46.3594C45.2109 50.9531 44.2266 50.0234 44.2266 48.8203V47.7812C44.2266 46.6328 45.1562 45.6484 46.3594 45.6484H50.2969C51.4453 45.6484 52.4297 46.5781 52.4297 47.7812V48.8203Z" fill="white"/>
</svg>
