<svg width="75" height="75" viewBox="0 0 75 75" fill="none" xmlns="http://www.w3.org/2000/svg">
<rect width="75" height="75" rx="18" fill="#A097FF"/>
<path d="M49.5312 41.656L48.6563 41.1638L49.6953 40.5623C50.7344 39.906 51.3359 38.8123 51.2812 37.6091C51.2266 36.406 50.625 35.3123 49.5312 34.7107L47.8906 33.781L49.6406 32.6873C50.6797 32.031 51.2812 30.9373 51.2266 29.7341C51.1719 28.531 50.5703 27.4373 49.4766 26.8357L39.25 21.0935C38.2109 20.4919 36.9531 20.5466 35.9141 21.0935L25.4141 27.2185C24.375 27.8201 23.7188 28.9138 23.7188 30.1169C23.7188 31.3201 24.375 32.4138 25.4141 33.0154L27.1094 33.9998L25.4141 34.9841C24.375 35.5857 23.7188 36.6794 23.7188 37.8826C23.7188 39.0857 24.3203 40.1794 25.4141 40.781L26.3984 41.3279L25.4687 41.8748C24.4297 42.4763 23.7734 43.5701 23.7734 44.7732C23.7734 45.9763 24.375 47.0701 25.4687 47.6716L35.9141 53.6873C36.4609 54.0154 37.0078 54.1248 37.6094 54.1248C38.2109 54.1248 38.8125 53.9607 39.3594 53.6326L49.6953 47.2888C50.7344 46.6326 51.3359 45.5388 51.2812 44.3357C51.2266 43.2966 50.625 42.2029 49.5312 41.656ZM25.6328 30.1169C25.6328 29.5701 25.9062 29.1326 26.3438 28.8591L36.8438 22.7888C37.0625 22.6794 37.3359 22.5701 37.5547 22.5701C37.7734 22.5701 38.0469 22.6248 38.2656 22.7341L48.5469 28.4763C48.9844 28.7498 49.2578 29.1873 49.3125 29.7341C49.3125 30.281 49.0391 30.7185 48.6016 30.9919L38.3203 37.3904C37.8828 37.6638 37.2812 37.6638 36.8438 37.3904L26.3984 31.3748C25.9062 31.156 25.6328 30.6638 25.6328 30.1169ZM25.6328 37.9373C25.6328 37.3904 25.9062 36.9529 26.3438 36.6794L29.0234 35.1482L35.8594 39.0857C36.4062 39.4138 36.9531 39.5232 37.5547 39.5232C38.1562 39.5232 38.7578 39.3591 39.3047 39.031L46.0312 34.8748L48.6016 36.2966C49.0391 36.5701 49.3125 37.0076 49.3672 37.5544C49.3672 38.1013 49.0938 38.5388 48.6563 38.8123L38.3203 45.2654C37.8828 45.5388 37.2812 45.5388 36.8438 45.2654L26.3984 39.2498C25.9062 38.9763 25.6328 38.4841 25.6328 37.9373ZM48.6563 45.8123L38.3203 52.2107C37.8828 52.4841 37.2812 52.4841 36.8438 52.2107L26.3984 46.1951C25.9609 45.9216 25.6875 45.4841 25.6875 44.9373C25.6875 44.3904 25.9609 43.9529 26.3984 43.6794L28.3125 42.5857L35.8594 46.9607C36.4062 47.2888 36.9531 47.3982 37.5547 47.3982C38.1562 47.3982 38.7578 47.2341 39.3047 46.906L46.7969 42.2576L48.6563 43.2966C49.0938 43.5701 49.3672 44.0076 49.4219 44.5544C49.3672 45.0466 49.0938 45.5388 48.6563 45.8123Z" fill="white"/>
</svg>
