<svg width="34" height="34" viewBox="0 0 34 34" fill="none" xmlns="http://www.w3.org/2000/svg">
<path fill-rule="evenodd" clip-rule="evenodd" d="M1 17C1 8.16344 8.16344 1 17 1C25.8366 1 33 8.16344 33 17C33 25.8366 25.8366 33 17 33C8.16344 33 1 25.8366 1 17Z" stroke="#E5E5E5"/>
<path d="M23.2194 13.0665L24.2 11.9393C24.4839 11.6341 24.5613 11.3992 24.5871 11.2818C23.8129 11.7045 23.0903 11.8454 22.6258 11.8454H22.4452L22.3419 11.7515C21.7226 11.2583 20.9484 11 20.1226 11C18.3161 11 16.8968 12.362 16.8968 13.9354C16.8968 14.0294 16.8968 14.1703 16.9226 14.2642L17 14.7339L16.4581 14.7104C13.1548 14.6164 10.4452 12.0333 10.0065 11.5871C9.28387 12.7613 9.69677 13.8885 10.1355 14.593L11.0129 15.908L9.61935 15.2035C9.64516 16.1898 10.0581 16.9648 10.8581 17.5284L11.5548 17.998L10.8581 18.2564C11.2968 19.454 12.2774 19.9472 13 20.135L13.9548 20.3699L13.0516 20.9335C11.6065 21.8728 9.8 21.8024 9 21.7319C10.6258 22.7652 12.5613 23 13.9032 23C14.9097 23 15.6581 22.9061 15.8387 22.8356C23.0645 21.2857 23.4 15.4149 23.4 14.2407V14.0763L23.5548 13.9824C24.4323 13.2309 24.7935 12.8317 25 12.5969C24.9226 12.6204 24.8194 12.6673 24.7161 12.6908L23.2194 13.0665Z" fill="#212B36"/>
</svg>
