<svg width="34" height="34" viewBox="0 0 34 34" fill="none" xmlns="http://www.w3.org/2000/svg">
<path d="M16.8862 32.7723C25.6598 32.7723 32.7723 25.6598 32.7723 16.8862C32.7723 8.11248 25.6598 1 16.8862 1C8.11248 1 1 8.11248 1 16.8862C1 25.6598 8.11248 32.7723 16.8862 32.7723Z" stroke="#E5E5E5"/>
<path d="M24.6645 12.8802C24.4839 12.1336 23.9419 11.553 23.2452 11.3594C22.0065 11 17 11 17 11C17 11 11.9935 11 10.7548 11.3594C10.0581 11.553 9.51613 12.1336 9.33548 12.8802C9 14.235 9 17 9 17C9 17 9 19.7926 9.33548 21.1198C9.51613 21.8664 10.0581 22.447 10.7548 22.6406C11.9935 23 17 23 17 23C17 23 22.0065 23 23.2452 22.6406C23.9419 22.447 24.4839 21.8664 24.6645 21.1198C25 19.7926 25 17 25 17C25 17 25 14.235 24.6645 12.8802ZM15.4 19.5714V14.4286L19.5548 17L15.4 19.5714Z" fill="#212B36"/>
</svg>
